<mxfile host="app.diagrams.net" agent="Mozilla/5.0 (Windows NT 10.0; Win64; x64) AppleWebKit/537.36 (KHTML, like Gecko) Chrome/127.0.0.0 Safari/537.36" version="24.7.6">
  <diagram name="generative_agent" id="SXRZObWvF-mIZRMQQ1eK">
    <mxGraphModel dx="1185" dy="647" grid="1" gridSize="10" guides="1" tooltips="1" connect="1" arrows="1" fold="1" page="1" pageScale="1" pageWidth="827" pageHeight="1169" math="0" shadow="0">
      <root>
        <mxCell id="0" />
        <mxCell id="1" parent="0" />
        <mxCell id="S9ZsQuf8eR5KpRNFXTV7-4" value="" style="rounded=1;whiteSpace=wrap;html=1;labelBorderColor=none;labelBackgroundColor=default;textShadow=0;fillColor=#63e6be;" vertex="1" parent="1">
          <mxGeometry x="70" y="340" width="120" height="280" as="geometry" />
        </mxCell>
        <mxCell id="S9ZsQuf8eR5KpRNFXTV7-5" value="" style="rounded=1;whiteSpace=wrap;html=1;fillColor=#FF99CC;" vertex="1" parent="1">
          <mxGeometry x="260" y="340" width="120" height="280" as="geometry" />
        </mxCell>
        <mxCell id="S9ZsQuf8eR5KpRNFXTV7-6" value="" style="rounded=1;whiteSpace=wrap;html=1;fillColor=#f08c00;" vertex="1" parent="1">
          <mxGeometry x="450" y="340" width="120" height="280" as="geometry" />
        </mxCell>
        <mxCell id="S9ZsQuf8eR5KpRNFXTV7-7" value="" style="rounded=1;whiteSpace=wrap;html=1;fillColor=#009999;" vertex="1" parent="1">
          <mxGeometry x="640" y="340" width="120" height="280" as="geometry" />
        </mxCell>
        <mxCell id="S9ZsQuf8eR5KpRNFXTV7-8" value="" style="shape=flexArrow;endArrow=classic;html=1;rounded=0;entryX=0.5;entryY=0;entryDx=0;entryDy=0;" edge="1" parent="1" target="S9ZsQuf8eR5KpRNFXTV7-7">
          <mxGeometry width="50" height="50" relative="1" as="geometry">
            <mxPoint x="459.5" y="259.5" as="sourcePoint" />
            <mxPoint x="690" y="260" as="targetPoint" />
            <Array as="points">
              <mxPoint x="700" y="260" />
            </Array>
          </mxGeometry>
        </mxCell>
        <mxCell id="S9ZsQuf8eR5KpRNFXTV7-11" value="" style="shape=flexArrow;endArrow=classic;html=1;rounded=0;entryX=0.5;entryY=0;entryDx=0;entryDy=0;" edge="1" parent="1" target="S9ZsQuf8eR5KpRNFXTV7-6">
          <mxGeometry width="50" height="50" relative="1" as="geometry">
            <mxPoint x="510" y="270" as="sourcePoint" />
            <mxPoint x="570" y="180" as="targetPoint" />
          </mxGeometry>
        </mxCell>
        <mxCell id="S9ZsQuf8eR5KpRNFXTV7-12" value="" style="group" vertex="1" connectable="0" parent="1">
          <mxGeometry x="353" y="210" width="121" height="100" as="geometry" />
        </mxCell>
        <mxCell id="S9ZsQuf8eR5KpRNFXTV7-10" value="" style="rounded=1;whiteSpace=wrap;html=1;" vertex="1" parent="S9ZsQuf8eR5KpRNFXTV7-12">
          <mxGeometry width="121" height="100" as="geometry" />
        </mxCell>
        <mxCell id="S9ZsQuf8eR5KpRNFXTV7-2" value="generative agent" style="shape=umlActor;verticalLabelPosition=bottom;verticalAlign=top;html=1;outlineConnect=0;" vertex="1" parent="S9ZsQuf8eR5KpRNFXTV7-12">
          <mxGeometry x="45.5" y="10" width="30" height="60" as="geometry" />
        </mxCell>
        <mxCell id="S9ZsQuf8eR5KpRNFXTV7-13" value="" style="shape=flexArrow;endArrow=classic;html=1;rounded=0;entryX=0.5;entryY=0;entryDx=0;entryDy=0;exitX=0;exitY=0.5;exitDx=0;exitDy=0;" edge="1" parent="1" source="S9ZsQuf8eR5KpRNFXTV7-10">
          <mxGeometry width="50" height="50" relative="1" as="geometry">
            <mxPoint x="-110" y="259.5" as="sourcePoint" />
            <mxPoint x="130.5" y="340" as="targetPoint" />
            <Array as="points">
              <mxPoint x="130.5" y="260" />
            </Array>
          </mxGeometry>
        </mxCell>
        <mxCell id="S9ZsQuf8eR5KpRNFXTV7-14" value="" style="shape=flexArrow;endArrow=classic;html=1;rounded=0;entryX=0.5;entryY=0;entryDx=0;entryDy=0;" edge="1" parent="1">
          <mxGeometry width="50" height="50" relative="1" as="geometry">
            <mxPoint x="319.5" y="270" as="sourcePoint" />
            <mxPoint x="319.5" y="340" as="targetPoint" />
          </mxGeometry>
        </mxCell>
        <mxCell id="S9ZsQuf8eR5KpRNFXTV7-15" value="Profile" style="rounded=1;whiteSpace=wrap;html=1;fillColor=#7ACF88;" vertex="1" parent="1">
          <mxGeometry x="80" y="360" width="100" height="30" as="geometry" />
        </mxCell>
        <mxCell id="S9ZsQuf8eR5KpRNFXTV7-16" value="Memory" style="rounded=1;whiteSpace=wrap;html=1;fillColor=#FF99FF;" vertex="1" parent="1">
          <mxGeometry x="270" y="360" width="100" height="30" as="geometry" />
        </mxCell>
        <mxCell id="S9ZsQuf8eR5KpRNFXTV7-17" value="Planning" style="rounded=1;whiteSpace=wrap;html=1;fillColor=#fab005;" vertex="1" parent="1">
          <mxGeometry x="460" y="360" width="100" height="30" as="geometry" />
        </mxCell>
        <mxCell id="S9ZsQuf8eR5KpRNFXTV7-18" value="Action" style="rounded=1;whiteSpace=wrap;html=1;fillColor=#00FFFF;" vertex="1" parent="1">
          <mxGeometry x="650" y="360" width="100" height="30" as="geometry" />
        </mxCell>
        <mxCell id="S9ZsQuf8eR5KpRNFXTV7-21" value="personality Information&lt;div&gt;Social Information&lt;/div&gt;&lt;div&gt;Role Information&lt;/div&gt;" style="text;html=1;align=center;verticalAlign=middle;resizable=0;points=[];autosize=1;strokeColor=none;fillColor=none;" vertex="1" parent="1">
          <mxGeometry x="60" y="395" width="140" height="60" as="geometry" />
        </mxCell>
        <mxCell id="S9ZsQuf8eR5KpRNFXTV7-22" value="Unified memory&lt;div&gt;Hybrid memory&lt;/div&gt;" style="text;html=1;align=center;verticalAlign=middle;resizable=0;points=[];autosize=1;strokeColor=none;fillColor=none;" vertex="1" parent="1">
          <mxGeometry x="265" y="405" width="110" height="40" as="geometry" />
        </mxCell>
        <mxCell id="S9ZsQuf8eR5KpRNFXTV7-23" value="reasoning&lt;div&gt;feedback&lt;/div&gt;" style="text;html=1;align=center;verticalAlign=middle;resizable=0;points=[];autosize=1;strokeColor=none;fillColor=none;" vertex="1" parent="1">
          <mxGeometry x="470" y="405" width="80" height="40" as="geometry" />
        </mxCell>
        <mxCell id="S9ZsQuf8eR5KpRNFXTV7-24" value="Tools&lt;div&gt;self-knowlege&lt;/div&gt;" style="text;html=1;align=center;verticalAlign=middle;resizable=0;points=[];autosize=1;strokeColor=none;fillColor=none;" vertex="1" parent="1">
          <mxGeometry x="650" y="405" width="100" height="40" as="geometry" />
        </mxCell>
      </root>
    </mxGraphModel>
  </diagram>
</mxfile>
